<svg width="22" height="22" viewBox="0 0 22 22" fill="none" xmlns="http://www.w3.org/2000/svg">
<path d="M17.4167 7.98416L12.5281 4.18183C11.6455 3.49522 10.4095 3.49522 9.52693 4.18183L4.63743 7.98416C4.04197 8.44723 3.69383 9.15941 3.69418 9.91374V16.5137C3.69418 17.5263 4.51499 18.3471 5.52752 18.3471H16.5275C17.54 18.3471 18.3609 17.5263 18.3609 16.5137V9.91374C18.3609 9.15933 18.0125 8.44708 17.4167 7.98416" stroke="#4B465C" stroke-width="1.5" stroke-linecap="round" stroke-linejoin="round"/>
<path d="M17.4167 7.98416L12.5281 4.18183C11.6455 3.49522 10.4095 3.49522 9.52693 4.18183L4.63743 7.98416C4.04197 8.44723 3.69383 9.15941 3.69418 9.91374V16.5137C3.69418 17.5263 4.51499 18.3471 5.52752 18.3471H16.5275C17.54 18.3471 18.3609 17.5263 18.3609 16.5137V9.91374C18.3609 9.15933 18.0125 8.44708 17.4167 7.98416" stroke="white" stroke-opacity="0.1" stroke-width="1.5" stroke-linecap="round" stroke-linejoin="round"/>
<path d="M14.6667 13.7499C12.6408 14.9718 9.35734 14.9718 7.33334 13.7499" stroke="#4B465C" stroke-width="1.5" stroke-linecap="round" stroke-linejoin="round"/>
<path d="M14.6667 13.7499C12.6408 14.9718 9.35734 14.9718 7.33334 13.7499" stroke="white" stroke-opacity="0.1" stroke-width="1.5" stroke-linecap="round" stroke-linejoin="round"/>
</svg>
