<svg width="577" height="345" viewBox="0 0 577 345" fill="none" xmlns="http://www.w3.org/2000/svg">
<g clip-path="url(#clip0_7_11210)">
<path d="M441.765 341.099C434.378 334.856 429.891 324.994 431.067 315.394C432.244 305.794 439.532 296.968 448.986 294.929C458.44 292.89 469.217 298.534 472.089 307.77C473.669 289.963 475.49 271.41 484.956 256.246C493.528 242.515 508.374 232.69 524.464 230.933C540.553 229.175 557.494 235.814 567.528 248.514C577.563 261.215 580.02 279.679 572.992 294.26C567.814 305.002 558.276 312.996 548.282 319.5C515.989 340.338 477.257 348.812 439.214 343.363L441.765 341.099Z" fill="#F2F2F2"/>
<path d="M551.617 236.182C538.341 246.996 526.162 259.091 515.255 272.292C498.187 292.881 484.375 315.965 474.3 340.739C473.563 342.547 476.497 343.334 477.227 341.546C493.71 301.282 520.025 265.794 553.763 238.328C555.278 237.094 553.12 234.958 551.617 236.182Z" fill="white"/>
<path d="M185.746 339.402C195.892 330.828 202.055 317.283 200.439 304.097C198.822 290.911 188.812 278.789 175.827 275.989C162.842 273.189 148.04 280.94 144.096 293.626C141.925 269.168 139.424 243.685 126.422 222.858C114.649 203.998 94.2581 190.504 72.159 188.09C50.0598 185.676 26.7922 194.794 13.0097 212.238C-0.772713 229.682 -4.14729 255.043 5.50558 275.07C12.6165 289.824 25.7173 300.804 39.4438 309.736C83.2358 338.235 137.56 350.12 189.25 342.512" fill="#F2F2F2"/>
<path d="M34.8632 195.299C53.0978 210.153 69.8261 226.766 84.8061 244.897C99.7885 263.01 112.979 282.534 124.192 303.194C130.46 314.783 136.09 326.706 141.058 338.909C142.071 341.391 138.04 342.472 137.039 340.017C128.239 318.503 117.353 297.903 104.535 278.513C91.7796 259.193 77.1804 241.156 60.9425 224.655C51.7582 215.327 42.0681 206.511 31.9159 198.247C29.835 196.552 32.7995 193.618 34.8632 195.299Z" fill="white"/>
<path d="M414.18 344.245H172.105V95.8447C172.105 42.9956 215.097 0 267.94 0H318.345C371.189 0 414.18 42.9956 414.18 95.8447V344.245Z" fill="#F2F2F2"/>
<path d="M363.775 344.245H172.105V95.8447C172.052 75.5941 178.464 55.8554 190.407 39.5024C190.847 38.9022 191.287 38.3099 191.739 37.724C197.516 30.1467 204.391 23.4734 212.136 17.9246C212.574 17.6062 213.013 17.2934 213.459 16.9805C219.94 12.495 226.951 8.82815 234.332 6.06349C234.77 5.89734 235.216 5.73087 235.662 5.5712C242.338 3.18873 249.258 1.55675 256.294 0.705391C256.73 0.645795 257.178 0.599161 257.626 0.552525C264.483 -0.180716 271.399 -0.180716 278.256 0.552525C278.702 0.599161 279.15 0.64579 279.592 0.706029C286.626 1.55744 293.544 3.18922 300.218 5.57123C300.664 5.7309 301.111 5.89736 301.55 6.06383C308.84 8.79362 315.768 12.4057 322.181 16.8195C322.626 17.1256 323.072 17.4385 323.511 17.7513C327.853 20.8507 331.931 24.3035 335.703 28.0747C338.729 31.0995 341.548 34.3239 344.143 37.726C344.594 38.3099 345.033 38.9023 345.473 39.5014C357.416 55.8546 363.828 75.5937 363.775 95.8447V344.245Z" fill="#CCCCCC"/>
<path d="M348.19 233.145C354.05 233.145 358.801 228.393 358.801 222.532C358.801 216.671 354.05 211.919 348.19 211.919C342.329 211.919 337.578 216.671 337.578 222.532C337.578 228.393 342.329 233.145 348.19 233.145Z" fill="#6C63FF"/>
<path d="M394.349 336.805H386.218L382.349 305.439L394.35 305.44L394.349 336.805Z" fill="#FFB8B8"/>
<path d="M380.41 334.481H396.091V344.355H370.537C370.537 343.059 370.792 341.775 371.288 340.577C371.784 339.379 372.512 338.29 373.428 337.373C374.345 336.456 375.434 335.729 376.632 335.233C377.829 334.737 379.113 334.481 380.41 334.481Z" fill="#2F2E41"/>
<path d="M434.805 336.805H426.674L422.806 305.439L434.807 305.44L434.805 336.805Z" fill="#FFB8B8"/>
<path d="M420.866 334.481H436.547V344.355H410.993C410.993 343.059 411.248 341.775 411.745 340.577C412.241 339.379 412.968 338.29 413.885 337.373C414.802 336.456 415.89 335.729 417.088 335.233C418.286 334.737 419.57 334.481 420.866 334.481Z" fill="#2F2E41"/>
<path d="M353.56 224.634C352.975 223.772 352.586 222.793 352.421 221.764C352.256 220.736 352.318 219.684 352.603 218.682C352.888 217.68 353.389 216.753 354.072 215.966C354.754 215.178 355.6 214.55 356.552 214.126L384.192 137.937L397.793 145.36L366.233 218.169C366.841 219.814 366.823 221.625 366.185 223.259C365.546 224.892 364.33 226.234 362.768 227.031C361.206 227.828 359.406 228.024 357.709 227.583C356.012 227.141 354.536 226.092 353.56 224.634Z" fill="#FFB8B8"/>
<path d="M430.652 238.951C429.748 238.433 428.969 237.723 428.37 236.871C427.77 236.019 427.365 235.046 427.182 234.021C426.999 232.995 427.043 231.942 427.311 230.935C427.579 229.929 428.064 228.993 428.733 228.195L420.171 147.599L435.649 148.306L439.207 227.582C440.474 228.795 441.253 230.43 441.395 232.178C441.537 233.926 441.033 235.666 439.978 237.067C438.924 238.468 437.392 239.434 435.673 239.781C433.954 240.128 432.168 239.833 430.652 238.951Z" fill="#FFB8B8"/>
<path d="M405.96 123.824C414.956 123.824 422.249 116.531 422.249 107.533C422.249 98.5362 414.956 91.2425 405.96 91.2425C396.963 91.2425 389.671 98.5362 389.671 107.533C389.671 116.531 396.963 123.824 405.96 123.824Z" fill="#FFB8B8"/>
<path d="M430.548 220.621H381.439L381.498 220.239C381.586 219.667 390.25 162.905 383.86 144.335C383.219 142.51 383.275 140.513 384.018 138.727C384.761 136.941 386.139 135.493 387.885 134.662C397.019 130.36 414.552 125.064 429.35 137.918C431.527 139.841 433.228 142.244 434.317 144.937C435.406 147.631 435.853 150.54 435.624 153.436L430.548 220.621Z" fill="#6C63FF"/>
<path d="M390.871 171.294L368.761 166.808L379.125 142.246C379.745 139.868 381.283 137.832 383.402 136.586C385.521 135.34 388.048 134.985 390.428 135.599C392.808 136.214 394.848 137.747 396.099 139.864C397.35 141.98 397.711 144.506 397.102 146.888L390.871 171.294Z" fill="#6C63FF"/>
<path d="M419.188 179.623L417.858 149.151C416.85 143.422 420.129 138.007 425.172 137.122C430.216 136.24 435.141 140.213 436.154 145.984L441.15 174.457L419.188 179.623Z" fill="#6C63FF"/>
<path d="M428.914 216.973C436.816 247.07 437.678 285.337 435.546 327.078L424.935 325.751L405.701 246.157L395.09 327.078L383.152 326.415C379.586 282.618 376.113 245.02 381.825 220.289L428.914 216.973Z" fill="#2F2E41"/>
<path d="M416.693 120.124C413.654 123.361 408.011 121.623 407.615 117.2C407.583 116.857 407.586 116.511 407.621 116.168C407.826 114.209 408.957 112.431 408.686 110.362C408.625 109.848 408.433 109.357 408.129 108.937C405.708 105.694 400.023 110.388 397.738 107.452C396.336 105.652 397.984 102.817 396.908 100.805C395.489 98.1497 391.285 99.4597 388.649 98.0054C385.715 96.3874 385.891 91.8865 387.822 89.1488C390.176 85.8101 394.305 84.0286 398.382 83.7718C402.46 83.5151 406.509 84.6173 410.315 86.1009C414.64 87.7865 418.929 90.1161 421.59 93.9194C424.827 98.5446 425.138 104.763 423.52 110.171C422.535 113.461 419.174 117.48 416.693 120.124Z" fill="#2F2E41"/>
<path d="M557.091 344.672H67.4411C67.232 344.671 67.0318 344.588 66.8842 344.439C66.7366 344.291 66.6537 344.091 66.6537 343.882C66.6537 343.673 66.7366 343.472 66.8842 343.324C67.0318 343.176 67.232 343.093 67.4411 343.092H557.091C557.3 343.093 557.501 343.176 557.648 343.324C557.796 343.472 557.879 343.673 557.879 343.882C557.879 344.091 557.796 344.291 557.648 344.439C557.501 344.588 557.3 344.671 557.091 344.672Z" fill="#3F3D56"/>
<path d="M311.049 272.278H224.831C223.696 272.285 222.604 271.84 221.796 271.042C220.988 270.245 220.529 269.159 220.52 268.023V75.5583C220.529 74.4227 220.988 73.337 221.796 72.5393C222.604 71.7415 223.696 71.297 224.831 71.3031H311.049C312.185 71.297 313.276 71.7415 314.085 72.5393C314.893 73.337 315.352 74.4227 315.36 75.5583V268.023C315.352 269.159 314.893 270.245 314.085 271.042C313.276 271.84 312.185 272.285 311.049 272.278Z" fill="white"/>
<path d="M315.36 133.579H220.52V134.905H315.36V133.579Z" fill="#CCCCCC"/>
<path d="M315.692 209.266H220.852V210.593H315.692V209.266Z" fill="#CCCCCC"/>
<path d="M251.691 71.3031H250.365V272.942H251.691V71.3031Z" fill="#CCCCCC"/>
<path d="M284.852 71.3031H283.526V272.942H284.852V71.3031Z" fill="#CCCCCC"/>
</g>
<defs>
<clipPath id="clip0_7_11210">
<rect width="577" height="345" fill="white"/>
</clipPath>
</defs>
</svg>
